# xmcd CD database file
#
# Track frame offsets:
#	150
#	23379
#	48729
#	66805
#	96883
#	117179
#	154835
#	186558
#	203963
#	251897
#
# Disc length: 3644 seconds
#
# Revision: 0
# Processed by: cddbd v1.4PL0 Copyright (c) Steve Scherf et al.
# Submitted via: CDex 1.50
#
DISCID=8d0e3a0a
DTITLE=Sweet Daddy Cool Breeze - Live In France
DYEAR=1997
DGENRE=Blues
TTITLE0=Take A Holiday
TTITLE1=Routine Blues
TTITLE2=Cards On The Table
TTITLE3=Outskirts Of Town
TTITLE4=Hey Baby
TTITLE5=Doggin' Me Around
TTITLE6=Mother Earth
TTITLE7=Greenbacks
TTITLE8=In Love With A Musician
TTITLE9=Sweet Tooth Mama
EXTD=YEAR: 1997
EXTT0=
EXTT1=
EXTT2=
EXTT3=
EXTT4=
EXTT5=
EXTT6=
EXTT7=
EXTT8=
EXTT9=
PLAYORDER=
